<?xml version="1.0" encoding="UTF-8" standalone="no"?><!DOCTYPE svg PUBLIC "-//W3C//DTD SVG 1.1//EN" "http://www.w3.org/Graphics/SVG/1.1/DTD/svg11.dtd"><svg width="100%" height="100%" viewBox="0 0 800 800" version="1.1" xmlns="http://www.w3.org/2000/svg" xmlns:xlink="http://www.w3.org/1999/xlink" xml:space="preserve" xmlns:serif="http://www.serif.com/" style="fill-rule:evenodd;clip-rule:evenodd;stroke-linejoin:round;stroke-miterlimit:1.41421;"><g><path d="M255.67,432.475l0.275,0.274c-20.357,21.08 -48.908,34.197 -80.498,34.197c-61.767,0 -111.915,-50.147 -111.915,-111.915c0,-61.767 50.148,-111.914 111.915,-111.914c31.581,0 60.124,13.109 80.48,34.177l-0.058,0.058c5.956,6.047 6.485,15.371 1.09,21.092c-5.532,5.866 -15.211,5.736 -21.6,-0.289c-0.047,-0.044 -0.093,-0.088 -0.138,-0.132l-0.036,0.035c-15.041,-15.765 -36.251,-25.593 -59.738,-25.593c-45.57,0 -82.566,36.997 -82.566,82.566c0,45.57 36.996,82.567 82.566,82.567c23.486,0 44.694,-9.827 59.735,-25.59l0.021,0.021c0.378,-0.496 0.784,-0.973 1.217,-1.428c6.049,-6.366 15.707,-7.025 21.551,-1.471c5.845,5.555 5.679,15.233 -0.371,21.599c-0.601,0.632 -1.247,1.216 -1.93,1.746Z" style="fill:#ffe627;fill-opacity:0.470588;"/></g><g><path d="M228.765,296.02c0.814,2.399 2.233,4.596 4.114,6.37c5.914,5.577 14.872,5.697 19.992,0.268c5.12,-5.43 4.476,-14.365 -1.438,-19.942c-1.88,-1.774 -4.157,-3.062 -6.6,-3.735l-16.068,17.039Z" style="fill:#75b8ff;"/><path d="M247.078,429.182c2.403,-0.805 4.605,-2.216 6.386,-4.09c5.599,-5.892 5.754,-14.849 0.344,-19.99c-5.409,-5.141 -14.347,-4.531 -19.947,1.361c-1.781,1.874 -3.077,4.146 -3.76,6.586l16.977,16.133Z" style="fill:#75b8ff;"/><path d="M251.933,426.962c-18.842,19.51 -45.266,31.651 -74.504,31.651c-57.168,0 -103.581,-46.414 -103.581,-103.582c0,-57.168 46.413,-103.581 103.581,-103.581c29.229,0 55.647,12.133 74.487,31.633l-19.197,19.218c-13.921,-14.591 -33.552,-23.688 -55.29,-23.688c-42.176,0 -76.418,34.242 -76.418,76.418c0,42.177 34.242,76.419 76.418,76.419c21.737,0 41.366,-9.095 55.286,-23.685l19.218,19.197Z" style="fill:#75b8ff;"/></g><g><rect x="127.45" y="474.974" width="92.902" height="23.813" style="fill:#75b8ff;"/><path d="M214.747,497.192c1.882,1.045 4.016,1.595 6.189,1.595c6.832,0 12.379,-5.335 12.379,-11.907c0,-6.571 -5.547,-11.906 -12.379,-11.906c-2.173,0 -4.307,0.55 -6.189,1.595l0,20.623Z" style="fill:#75b8ff;"/><path d="M134.868,476.569c-1.882,-1.045 -4.016,-1.595 -6.189,-1.595c-6.832,0 -12.379,5.335 -12.379,11.906c0,6.572 5.547,11.907 12.379,11.907c2.173,0 4.307,-0.55 6.189,-1.595l0,-20.623Z" style="fill:#75b8ff;"/></g><g><rect x="133.756" y="505.648" width="80.246" height="23.813" style="fill:#75b8ff;"/><path d="M208.505,527.866c1.846,1.045 3.939,1.595 6.07,1.595c6.699,0 12.138,-5.335 12.138,-11.907c0,-6.571 -5.439,-11.906 -12.138,-11.906c-2.131,0 -4.224,0.55 -6.07,1.595l0,20.623Z" style="fill:#75b8ff;"/><path d="M141.11,507.243c-1.846,-1.045 -3.939,-1.595 -6.07,-1.595c-6.699,0 -12.138,5.335 -12.138,11.906c0,6.572 5.439,11.907 12.138,11.907c2.131,0 4.224,-0.55 6.07,-1.595l0,-20.623Z" style="fill:#75b8ff;"/></g><g><rect x="142.919" y="536.245" width="64.378" height="23.813" style="fill:#75b8ff;"/><path d="M201.346,558.463c1.83,1.045 3.906,1.595 6.019,1.595c6.645,0 12.039,-5.335 12.039,-11.906c0,-6.572 -5.394,-11.907 -12.039,-11.907c-2.113,0 -4.189,0.55 -6.019,1.595l0,20.623Z" style="fill:#75b8ff;"/><path d="M148.269,537.84c-1.83,-1.045 -3.906,-1.595 -6.019,-1.595c-6.645,0 -12.039,5.335 -12.039,11.907c0,6.571 5.394,11.906 12.039,11.906c2.113,0 4.189,-0.55 6.019,-1.595l0,-20.623Z" style="fill:#75b8ff;"/></g><text x="241.326px" y="400px" style="font-family:'TsukuBRdGothic-Bold', 'Tsukushi B Round Gothic', serif;font-weight:700;font-size:121.866px;fill:#75b8ff;">onfusion</text><text x="291.225px" y="557.986px" style="font-family:'TsukuBRdGothic-Bold', 'Tsukushi B Round Gothic', serif;font-weight:700;font-size:121.866px;fill:#75b8ff;">Tracker</text></svg>